<svg id="visual" viewBox="0 0 900 600" width="900" height="600" xmlns="http://www.w3.org/2000/svg" xmlns:xlink="http://www.w3.org/1999/xlink" version="1.1"><rect x="0" y="0" width="900" height="600" fill="#fff"></rect><path d="M0 383L21.5 397C43 411 86 439 128.8 448.8C171.7 458.7 214.3 450.3 257.2 437C300 423.7 343 405.3 385.8 413.2C428.7 421 471.3 455 514.2 453.3C557 451.7 600 414.3 642.8 399.7C685.7 385 728.3 393 771.2 395.7C814 398.3 857 395.7 878.5 394.3L900 393L900 601L878.5 601C857 601 814 601 771.2 601C728.3 601 685.7 601 642.8 601C600 601 557 601 514.2 601C471.3 601 428.7 601 385.8 601C343 601 300 601 257.2 601C214.3 601 171.7 601 128.8 601C86 601 43 601 21.5 601L0 601Z" fill="#14213d" stroke-linecap="round" stroke-linejoin="miter"></path></svg>